<svg xmlns="http://www.w3.org/2000/svg" width="34.875" height="34.873" viewBox="0 0 34.875 34.873"><path d="M9.246,15.293,3.874,7.038A17.435,17.435,0,0,1,33,10.139L18.563,9.38A9.165,9.165,0,0,0,9.246,15.293ZM11.559,18a5.878,5.878,0,1,0,5.878-5.878A5.876,5.876,0,0,0,11.559,18ZM33.7,11.728l-9.823.506a9.218,9.218,0,0,1,.464,11.053L16.46,35.409A17.442,17.442,0,0,0,33.7,11.728ZM9.4,21.347l-6.56-12.9A17.446,17.446,0,0,0,14.73,35.22l4.479-8.775a9.21,9.21,0,0,1-9.809-5.1Z" transform="translate(0 -0.562)"/></svg>