<svg xmlns="http://www.w3.org/2000/svg" width="31.416" height="35.434" viewBox="0 0 31.416 35.434"><path d="M15.75,35.719a2.754,2.754,0,0,1-1.364-.366l-4.338-2.566c-.647-.366-.33-.492-.12-.562a8.546,8.546,0,0,0,1.962-.893.317.317,0,0,1,.323.028l3.333,1.976a.407.407,0,0,0,.4,0l12.987-7.5a.416.416,0,0,0,.2-.352V10.5a.419.419,0,0,0-.2-.359L15.947,2.651a.407.407,0,0,0-.4,0l-12.973,7.5a.41.41,0,0,0-.2.359V25.488a.388.388,0,0,0,.2.345l3.558,2.053c1.934.963,3.115-.169,3.115-1.315V11.777a.372.372,0,0,1,.38-.373h1.645a.377.377,0,0,1,.38.373v14.8c0,2.573-1.406,4.05-3.846,4.05a5.522,5.522,0,0,1-2.988-.816l-3.4-1.962a2.734,2.734,0,0,1-1.364-2.37V10.5a2.743,2.743,0,0,1,1.364-2.37L14.386.633a2.847,2.847,0,0,1,2.728,0L30.1,8.135a2.734,2.734,0,0,1,1.364,2.37V25.488a2.751,2.751,0,0,1-1.364,2.37l-12.987,7.5a2.735,2.735,0,0,1-1.364.366ZM26.234,20.946c0-2.805-1.9-3.551-5.885-4.078-4.036-.534-4.444-.809-4.444-1.751,0-.78.345-1.821,3.333-1.821,2.665,0,3.649.577,4.057,2.377a.376.376,0,0,0,.366.3h1.688a.367.367,0,0,0,.274-.12.391.391,0,0,0,.1-.288c-.26-3.1-2.32-4.542-6.483-4.542-3.705,0-5.913,1.561-5.913,4.184,0,2.841,2.2,3.628,5.752,3.98,4.254.415,4.584,1.041,4.584,1.877,0,1.448-1.167,2.067-3.9,2.067-3.438,0-4.191-.865-4.444-2.573a.372.372,0,0,0-.373-.316h-1.68a.371.371,0,0,0-.373.373c0,2.187,1.188,4.8,6.877,4.8,4.106-.007,6.469-1.631,6.469-4.458Z" transform="translate(-0.049 -0.285)"/></svg>