<svg xmlns="http://www.w3.org/2000/svg" width="45" height="31.102" viewBox="0 0 45 31.102"><path d="M18.139,19.193,4.475,32.858a1.687,1.687,0,0,1-2.386,0L.494,31.264a1.687,1.687,0,0,1,0-2.384L11.321,18,.491,7.119a1.687,1.687,0,0,1,0-2.384L2.088,3.142a1.687,1.687,0,0,1,2.386,0L18.139,16.807A1.687,1.687,0,0,1,18.139,19.193ZM45,32.063v-2.25a1.687,1.687,0,0,0-1.687-1.687H21.938a1.687,1.687,0,0,0-1.687,1.688v2.25a1.687,1.687,0,0,0,1.688,1.688H43.313A1.687,1.687,0,0,0,45,32.063Z" transform="translate(0 -2.648)"/></svg>